<svg width="3708.1000000000004" height="986.7" xmlns="http://www.w3.org/2000/svg" xmlns:xlink="http://www.w3.org/1999/xlink"><line x1="1160.375" y1="8.0" x2="74.5" y2="33.0" style="stroke:black; stroke-width:1px;" />
<line x1="74.5" y1="41.0" x2="74.5" y2="66.0" style="stroke:black; stroke-width:1px;" />
<line x1="74.5" y1="74.0" x2="31.5" y2="99.0" style="stroke:black; stroke-width:1px;" />
<line x1="74.5" y1="74.0" x2="75.0" y2="99.0" style="stroke:black; stroke-width:1px;" />
<line x1="74.5" y1="74.0" x2="117.5" y2="99.0" style="stroke:black; stroke-width:1px;" />
<line x1="117.5" y1="107.0" x2="117.5" y2="132.0" style="stroke:black; stroke-width:1px;" />
<line x1="1160.375" y1="8.0" x2="213.75" y2="33.0" style="stroke:black; stroke-width:1px;" />
<line x1="213.75" y1="41.0" x2="213.75" y2="66.0" style="stroke:black; stroke-width:1px;" />
<line x1="213.75" y1="74.0" x2="176.0" y2="99.0" style="stroke:black; stroke-width:1px;" />
<line x1="213.75" y1="74.0" x2="209.0" y2="99.0" style="stroke:black; stroke-width:1px;" />
<line x1="213.75" y1="74.0" x2="251.5" y2="99.0" style="stroke:black; stroke-width:1px;" />
<line x1="251.5" y1="107.0" x2="251.5" y2="132.0" style="stroke:black; stroke-width:1px;" />
<line x1="1160.375" y1="8.0" x2="555.25" y2="33.0" style="stroke:black; stroke-width:1px;" />
<line x1="555.25" y1="41.0" x2="555.25" y2="66.0" style="stroke:black; stroke-width:1px;" />
<line x1="555.25" y1="74.0" x2="514.5" y2="99.0" style="stroke:black; stroke-width:1px;" />
<line x1="555.25" y1="74.0" x2="553.5" y2="99.0" style="stroke:black; stroke-width:1px;" />
<line x1="555.25" y1="74.0" x2="596.0" y2="99.0" style="stroke:black; stroke-width:1px;" />
<line x1="596.0" y1="107.0" x2="267.5" y2="132.0" style="stroke:black; stroke-width:1px;" />
<line x1="596.0" y1="107.0" x2="309.0" y2="132.0" style="stroke:black; stroke-width:1px;" />
<line x1="309.0" y1="140.0" x2="309.0" y2="165.0" style="stroke:black; stroke-width:1px;" />
<line x1="596.0" y1="107.0" x2="350.0" y2="132.0" style="stroke:black; stroke-width:1px;" />
<line x1="596.0" y1="107.0" x2="391.0" y2="132.0" style="stroke:black; stroke-width:1px;" />
<line x1="391.0" y1="140.0" x2="391.0" y2="165.0" style="stroke:black; stroke-width:1px;" />
<line x1="596.0" y1="107.0" x2="432.0" y2="132.0" style="stroke:black; stroke-width:1px;" />
<line x1="596.0" y1="107.0" x2="473.0" y2="132.0" style="stroke:black; stroke-width:1px;" />
<line x1="473.0" y1="140.0" x2="473.0" y2="165.0" style="stroke:black; stroke-width:1px;" />
<line x1="596.0" y1="107.0" x2="514.0" y2="132.0" style="stroke:black; stroke-width:1px;" />
<line x1="596.0" y1="107.0" x2="555.0" y2="132.0" style="stroke:black; stroke-width:1px;" />
<line x1="555.0" y1="140.0" x2="555.0" y2="165.0" style="stroke:black; stroke-width:1px;" />
<line x1="596.0" y1="107.0" x2="596.0" y2="132.0" style="stroke:black; stroke-width:1px;" />
<line x1="596.0" y1="107.0" x2="637.0" y2="132.0" style="stroke:black; stroke-width:1px;" />
<line x1="637.0" y1="140.0" x2="637.0" y2="165.0" style="stroke:black; stroke-width:1px;" />
<line x1="596.0" y1="107.0" x2="678.0" y2="132.0" style="stroke:black; stroke-width:1px;" />
<line x1="596.0" y1="107.0" x2="719.0" y2="132.0" style="stroke:black; stroke-width:1px;" />
<line x1="719.0" y1="140.0" x2="719.0" y2="165.0" style="stroke:black; stroke-width:1px;" />
<line x1="596.0" y1="107.0" x2="760.0" y2="132.0" style="stroke:black; stroke-width:1px;" />
<line x1="596.0" y1="107.0" x2="801.0" y2="132.0" style="stroke:black; stroke-width:1px;" />
<line x1="801.0" y1="140.0" x2="801.0" y2="165.0" style="stroke:black; stroke-width:1px;" />
<line x1="596.0" y1="107.0" x2="842.0" y2="132.0" style="stroke:black; stroke-width:1px;" />
<line x1="596.0" y1="107.0" x2="883.0" y2="132.0" style="stroke:black; stroke-width:1px;" />
<line x1="883.0" y1="140.0" x2="883.0" y2="165.0" style="stroke:black; stroke-width:1px;" />
<line x1="596.0" y1="107.0" x2="924.5" y2="132.0" style="stroke:black; stroke-width:1px;" />
<line x1="1160.375" y1="8.0" x2="781.5" y2="33.0" style="stroke:black; stroke-width:1px;" />
<line x1="781.5" y1="41.0" x2="781.5" y2="66.0" style="stroke:black; stroke-width:1px;" />
<line x1="781.5" y1="74.0" x2="665.0" y2="99.0" style="stroke:black; stroke-width:1px;" />
<line x1="781.5" y1="74.0" x2="708.5" y2="99.0" style="stroke:black; stroke-width:1px;" />
<line x1="781.5" y1="74.0" x2="736.5" y2="99.0" style="stroke:black; stroke-width:1px;" />
<line x1="781.5" y1="74.0" x2="763.0" y2="99.0" style="stroke:black; stroke-width:1px;" />
<line x1="781.5" y1="74.0" x2="830.5" y2="99.0" style="stroke:black; stroke-width:1px;" />
<line x1="781.5" y1="74.0" x2="898.0" y2="99.0" style="stroke:black; stroke-width:1px;" />
<line x1="1160.375" y1="8.0" x2="967.25" y2="33.0" style="stroke:black; stroke-width:1px;" />
<line x1="967.25" y1="41.0" x2="967.25" y2="66.0" style="stroke:black; stroke-width:1px;" />
<line x1="967.25" y1="74.0" x2="929.5" y2="99.0" style="stroke:black; stroke-width:1px;" />
<line x1="967.25" y1="74.0" x2="962.5" y2="99.0" style="stroke:black; stroke-width:1px;" />
<line x1="967.25" y1="74.0" x2="1005.0" y2="99.0" style="stroke:black; stroke-width:1px;" />
<line x1="1005.0" y1="107.0" x2="1005.0" y2="132.0" style="stroke:black; stroke-width:1px;" />
<line x1="1160.375" y1="8.0" x2="1212.75" y2="33.0" style="stroke:black; stroke-width:1px;" />
<line x1="1212.75" y1="41.0" x2="1212.75" y2="66.0" style="stroke:black; stroke-width:1px;" />
<line x1="1212.75" y1="74.0" x2="1111.0" y2="99.0" style="stroke:black; stroke-width:1px;" />
<line x1="1212.75" y1="74.0" x2="1154.0" y2="99.0" style="stroke:black; stroke-width:1px;" />
<line x1="1154.0" y1="107.0" x2="1074.0" y2="132.0" style="stroke:black; stroke-width:1px;" />
<line x1="1074.0" y1="140.0" x2="1074.0" y2="165.0" style="stroke:black; stroke-width:1px;" />
<line x1="1154.0" y1="107.0" x2="1154.0" y2="132.0" style="stroke:black; stroke-width:1px;" />
<line x1="1154.0" y1="140.0" x2="1154.0" y2="165.0" style="stroke:black; stroke-width:1px;" />
<line x1="1154.0" y1="107.0" x2="1234.0" y2="132.0" style="stroke:black; stroke-width:1px;" />
<line x1="1234.0" y1="140.0" x2="1234.0" y2="165.0" style="stroke:black; stroke-width:1px;" />
<line x1="1212.75" y1="74.0" x2="1241.5" y2="99.0" style="stroke:black; stroke-width:1px;" />
<line x1="1212.75" y1="74.0" x2="1314.5" y2="99.0" style="stroke:black; stroke-width:1px;" />
<line x1="1314.5" y1="107.0" x2="1275.5" y2="132.0" style="stroke:black; stroke-width:1px;" />
<line x1="1314.5" y1="107.0" x2="1314.5" y2="132.0" style="stroke:black; stroke-width:1px;" />
<line x1="1314.5" y1="140.0" x2="1314.5" y2="165.0" style="stroke:black; stroke-width:1px;" />
<line x1="1314.5" y1="173.0" x2="1276.75" y2="198.0" style="stroke:black; stroke-width:1px;" />
<line x1="1314.5" y1="173.0" x2="1309.75" y2="198.0" style="stroke:black; stroke-width:1px;" />
<line x1="1314.5" y1="173.0" x2="1352.25" y2="198.0" style="stroke:black; stroke-width:1px;" />
<line x1="1352.25" y1="206.0" x2="1352.25" y2="231.0" style="stroke:black; stroke-width:1px;" />
<line x1="1314.5" y1="107.0" x2="1353.5" y2="132.0" style="stroke:black; stroke-width:1px;" />
<line x1="1160.375" y1="8.0" x2="1593.6875" y2="33.0" style="stroke:black; stroke-width:1px;" />
<line x1="1593.6875" y1="41.0" x2="1593.6875" y2="66.0" style="stroke:black; stroke-width:1px;" />
<line x1="1593.6875" y1="74.0" x2="1438.0" y2="99.0" style="stroke:black; stroke-width:1px;" />
<line x1="1593.6875" y1="74.0" x2="1491.5" y2="99.0" style="stroke:black; stroke-width:1px;" />
<line x1="1491.5" y1="107.0" x2="1411.5" y2="132.0" style="stroke:black; stroke-width:1px;" />
<line x1="1411.5" y1="140.0" x2="1411.5" y2="165.0" style="stroke:black; stroke-width:1px;" />
<line x1="1491.5" y1="107.0" x2="1491.5" y2="132.0" style="stroke:black; stroke-width:1px;" />
<line x1="1491.5" y1="140.0" x2="1491.5" y2="165.0" style="stroke:black; stroke-width:1px;" />
<line x1="1491.5" y1="107.0" x2="1571.5" y2="132.0" style="stroke:black; stroke-width:1px;" />
<line x1="1571.5" y1="140.0" x2="1571.5" y2="165.0" style="stroke:black; stroke-width:1px;" />
<line x1="1593.6875" y1="74.0" x2="1627.6875" y2="99.0" style="stroke:black; stroke-width:1px;" />
<line x1="1593.6875" y1="74.0" x2="1749.375" y2="99.0" style="stroke:black; stroke-width:1px;" />
<line x1="1749.375" y1="107.0" x2="1613.0" y2="132.0" style="stroke:black; stroke-width:1px;" />
<line x1="1749.375" y1="107.0" x2="1652.0" y2="132.0" style="stroke:black; stroke-width:1px;" />
<line x1="1652.0" y1="140.0" x2="1652.0" y2="165.0" style="stroke:black; stroke-width:1px;" />
<line x1="1652.0" y1="173.0" x2="1609.0" y2="198.0" style="stroke:black; stroke-width:1px;" />
<line x1="1652.0" y1="173.0" x2="1652.5" y2="198.0" style="stroke:black; stroke-width:1px;" />
<line x1="1652.0" y1="173.0" x2="1695.0" y2="198.0" style="stroke:black; stroke-width:1px;" />
<line x1="1695.0" y1="206.0" x2="1633.5" y2="231.0" style="stroke:black; stroke-width:1px;" />
<line x1="1633.5" y1="239.0" x2="1633.5" y2="264.0" style="stroke:black; stroke-width:1px;" />
<line x1="1695.0" y1="206.0" x2="1695.0" y2="231.0" style="stroke:black; stroke-width:1px;" />
<line x1="1695.0" y1="239.0" x2="1695.0" y2="264.0" style="stroke:black; stroke-width:1px;" />
<line x1="1695.0" y1="206.0" x2="1756.5" y2="231.0" style="stroke:black; stroke-width:1px;" />
<line x1="1756.5" y1="239.0" x2="1756.5" y2="264.0" style="stroke:black; stroke-width:1px;" />
<line x1="1749.375" y1="107.0" x2="1846.75" y2="132.0" style="stroke:black; stroke-width:1px;" />
<line x1="1846.75" y1="140.0" x2="1846.75" y2="165.0" style="stroke:black; stroke-width:1px;" />
<line x1="1846.75" y1="173.0" x2="1809.0" y2="198.0" style="stroke:black; stroke-width:1px;" />
<line x1="1846.75" y1="173.0" x2="1842.0" y2="198.0" style="stroke:black; stroke-width:1px;" />
<line x1="1846.75" y1="173.0" x2="1884.5" y2="198.0" style="stroke:black; stroke-width:1px;" />
<line x1="1884.5" y1="206.0" x2="1824.5" y2="231.0" style="stroke:black; stroke-width:1px;" />
<line x1="1824.5" y1="239.0" x2="1824.5" y2="264.0" style="stroke:black; stroke-width:1px;" />
<line x1="1884.5" y1="206.0" x2="1884.5" y2="231.0" style="stroke:black; stroke-width:1px;" />
<line x1="1884.5" y1="239.0" x2="1884.5" y2="264.0" style="stroke:black; stroke-width:1px;" />
<line x1="1884.5" y1="206.0" x2="1944.5" y2="231.0" style="stroke:black; stroke-width:1px;" />
<line x1="1944.5" y1="239.0" x2="1944.5" y2="264.0" style="stroke:black; stroke-width:1px;" />
<line x1="1749.375" y1="107.0" x2="1885.75" y2="132.0" style="stroke:black; stroke-width:1px;" />
<line x1="1160.375" y1="8.0" x2="1954.0" y2="33.0" style="stroke:black; stroke-width:1px;" />
<line x1="1954.0" y1="41.0" x2="1954.0" y2="66.0" style="stroke:black; stroke-width:1px;" />
<line x1="1954.0" y1="74.0" x2="1859.25" y2="99.0" style="stroke:black; stroke-width:1px;" />
<line x1="1954.0" y1="74.0" x2="1884.75" y2="99.0" style="stroke:black; stroke-width:1px;" />
<line x1="1954.0" y1="74.0" x2="1925.75" y2="99.0" style="stroke:black; stroke-width:1px;" />
<line x1="1925.75" y1="107.0" x2="1925.75" y2="132.0" style="stroke:black; stroke-width:1px;" />
<line x1="1954.0" y1="74.0" x2="1966.75" y2="99.0" style="stroke:black; stroke-width:1px;" />
<line x1="1954.0" y1="74.0" x2="2007.75" y2="99.0" style="stroke:black; stroke-width:1px;" />
<line x1="2007.75" y1="107.0" x2="2007.75" y2="132.0" style="stroke:black; stroke-width:1px;" />
<line x1="1954.0" y1="74.0" x2="2048.75" y2="99.0" style="stroke:black; stroke-width:1px;" />
<line x1="1160.375" y1="8.0" x2="2192.75" y2="33.0" style="stroke:black; stroke-width:1px;" />
<line x1="2192.75" y1="41.0" x2="2192.75" y2="66.0" style="stroke:black; stroke-width:1px;" />
<line x1="2192.75" y1="74.0" x2="2074.25" y2="99.0" style="stroke:black; stroke-width:1px;" />
<line x1="2192.75" y1="74.0" x2="2099.75" y2="99.0" style="stroke:black; stroke-width:1px;" />
<line x1="2192.75" y1="74.0" x2="2140.75" y2="99.0" style="stroke:black; stroke-width:1px;" />
<line x1="2140.75" y1="107.0" x2="2140.75" y2="132.0" style="stroke:black; stroke-width:1px;" />
<line x1="2192.75" y1="74.0" x2="2205.5" y2="99.0" style="stroke:black; stroke-width:1px;" />
<line x1="2192.75" y1="74.0" x2="2270.25" y2="99.0" style="stroke:black; stroke-width:1px;" />
<line x1="2270.25" y1="107.0" x2="2209.75" y2="132.0" style="stroke:black; stroke-width:1px;" />
<line x1="2270.25" y1="107.0" x2="2247.75" y2="132.0" style="stroke:black; stroke-width:1px;" />
<line x1="2270.25" y1="107.0" x2="2289.25" y2="132.0" style="stroke:black; stroke-width:1px;" />
<line x1="2289.25" y1="140.0" x2="2289.25" y2="165.0" style="stroke:black; stroke-width:1px;" />
<line x1="2270.25" y1="107.0" x2="2330.75" y2="132.0" style="stroke:black; stroke-width:1px;" />
<line x1="2192.75" y1="74.0" x2="2311.25" y2="99.0" style="stroke:black; stroke-width:1px;" />
<line x1="1160.375" y1="8.0" x2="2246.25" y2="33.0" style="stroke:black; stroke-width:1px;" />
<rect x="1256.0" y="165.0" width="117.0" height="16.0" style="fill:orange; stroke:rgb(0,0,0);" rx="1"/>
<text x="1258" y="174" style="font-family:sans-serif;font-size:10px;">
assignmentStatement
</text>
<rect x="1624.1875" y="99.0" width="7.0" height="16.0" style="fill:orange; stroke:rgb(0,0,0);" rx="1"/>
<text x="1626" y="108" style="font-family:sans-serif;font-size:10px;">
:
</text>
<rect x="1486.5" y="165.0" width="10.0" height="16.0" style="fill:orange; stroke:rgb(0,0,0);" rx="1"/>
<text x="1488" y="174" style="font-family:sans-serif;font-size:10px;">
&gt;
</text>
<rect x="714.0" y="165.0" width="10.0" height="16.0" style="fill:orange; stroke:rgb(0,0,0);" rx="1"/>
<text x="716" y="174" style="font-family:sans-serif;font-size:10px;">
5
</text>
<rect x="112.5" y="132.0" width="10.0" height="16.0" style="fill:orange; stroke:rgb(0,0,0);" rx="1"/>
<text x="114" y="141" style="font-family:sans-serif;font-size:10px;">
0
</text>
<rect x="1862.0" y="231.0" width="45.0" height="16.0" style="fill:orange; stroke:rgb(0,0,0);" rx="1"/>
<text x="1864" y="240" style="font-family:sans-serif;font-size:10px;">
mul_div
</text>
<rect x="0.0" y="99.0" width="63.0" height="16.0" style="fill:orange; stroke:rgb(0,0,0);" rx="1"/>
<text x="2" y="108" style="font-family:sans-serif;font-size:10px;">
argumento
</text>
<rect x="1449.0" y="132.0" width="85.0" height="16.0" style="fill:orange; stroke:rgb(0,0,0);" rx="1"/>
<text x="1451" y="141" style="font-family:sans-serif;font-size:10px;">
comparison_op
</text>
<rect x="428.5" y="132.0" width="7.0" height="16.0" style="fill:orange; stroke:rgb(0,0,0);" rx="1"/>
<text x="430" y="141" style="font-family:sans-serif;font-size:10px;">
,
</text>
<rect x="688.5" y="132.0" width="61.0" height="16.0" style="fill:orange; stroke:rgb(0,0,0);" rx="1"/>
<text x="690" y="141" style="font-family:sans-serif;font-size:10px;">
expression
</text>
<rect x="1881.75" y="132.0" width="8.0" height="16.0" style="fill:orange; stroke:rgb(0,0,0);" rx="1"/>
<text x="1883" y="141" style="font-family:sans-serif;font-size:10px;">
}
</text>
<rect x="2045.25" y="99.0" width="7.0" height="16.0" style="fill:orange; stroke:rgb(0,0,0);" rx="1"/>
<text x="2047" y="108" style="font-family:sans-serif;font-size:10px;">
)
</text>
<rect x="739.0" y="66.0" width="85.0" height="16.0" style="fill:orange; stroke:rgb(0,0,0);" rx="1"/>
<text x="741" y="75" style="font-family:sans-serif;font-size:10px;">
inputStatement
</text>
<rect x="1111.5" y="132.0" width="85.0" height="16.0" style="fill:orange; stroke:rgb(0,0,0);" rx="1"/>
<text x="1113" y="141" style="font-family:sans-serif;font-size:10px;">
comparison_op
</text>
<rect x="1565.6875" y="33.0" width="56.0" height="16.0" style="fill:orange; stroke:rgb(0,0,0);" rx="1"/>
<text x="1567" y="42" style="font-family:sans-serif;font-size:10px;">
statement
</text>
<rect x="360.5" y="132.0" width="61.0" height="16.0" style="fill:orange; stroke:rgb(0,0,0);" rx="1"/>
<text x="362" y="141" style="font-family:sans-serif;font-size:10px;">
expression
</text>
<rect x="1180.75" y="66.0" width="64.0" height="16.0" style="fill:orange; stroke:rgb(0,0,0);" rx="1"/>
<text x="1182" y="75" style="font-family:sans-serif;font-size:10px;">
ifStatement
</text>
<rect x="487.5" y="99.0" width="54.0" height="16.0" style="fill:orange; stroke:rgb(0,0,0);" rx="1"/>
<text x="489" y="108" style="font-family:sans-serif;font-size:10px;">
flamengo
</text>
<rect x="1624.0" y="132.0" width="56.0" height="16.0" style="fill:orange; stroke:rgb(0,0,0);" rx="1"/>
<text x="1626" y="141" style="font-family:sans-serif;font-size:10px;">
statement
</text>
<rect x="1986.75" y="132.0" width="42.0" height="16.0" style="fill:orange; stroke:rgb(0,0,0);" rx="1"/>
<text x="1988" y="141" style="font-family:sans-serif;font-size:10px;">
fatorial
</text>
<rect x="753.5" y="33.0" width="56.0" height="16.0" style="fill:orange; stroke:rgb(0,0,0);" rx="1"/>
<text x="755" y="42" style="font-family:sans-serif;font-size:10px;">
statement
</text>
<rect x="1844.25" y="99.0" width="30.0" height="16.0" style="fill:orange; stroke:rgb(0,0,0);" rx="1"/>
<text x="1846" y="108" style="font-family:sans-serif;font-size:10px;">
print
</text>
<rect x="1304.75" y="198.0" width="10.0" height="16.0" style="fill:orange; stroke:rgb(0,0,0);" rx="1"/>
<text x="1306" y="207" style="font-family:sans-serif;font-size:10px;">
=
</text>
<rect x="2105.75" y="132.0" width="70.0" height="16.0" style="fill:orange; stroke:rgb(0,0,0);" rx="1"/>
<text x="2107" y="141" style="font-family:sans-serif;font-size:10px;">
"Flamengo:·"
</text>
<rect x="1691.0" y="264.0" width="8.0" height="16.0" style="fill:orange; stroke:rgb(0,0,0);" rx="1"/>
<text x="1693" y="273" style="font-family:sans-serif;font-size:10px;">
-
</text>
<rect x="957.5" y="99.0" width="10.0" height="16.0" style="fill:orange; stroke:rgb(0,0,0);" rx="1"/>
<text x="959" y="108" style="font-family:sans-serif;font-size:10px;">
=
</text>
<rect x="1895.25" y="99.0" width="61.0" height="16.0" style="fill:orange; stroke:rgb(0,0,0);" rx="1"/>
<text x="1897" y="108" style="font-family:sans-serif;font-size:10px;">
expression
</text>
<rect x="1609.0" y="132.0" width="8.0" height="16.0" style="fill:orange; stroke:rgb(0,0,0);" rx="1"/>
<text x="1611" y="141" style="font-family:sans-serif;font-size:10px;">
{
</text>
<rect x="1551.1875" y="66.0" width="85.0" height="16.0" style="fill:orange; stroke:rgb(0,0,0);" rx="1"/>
<text x="1553" y="75" style="font-family:sans-serif;font-size:10px;">
whileStatement
</text>
<rect x="2243.75" y="132.0" width="8.0" height="16.0" style="fill:orange; stroke:rgb(0,0,0);" rx="1"/>
<text x="2245" y="141" style="font-family:sans-serif;font-size:10px;">
[
</text>
<rect x="633.5" y="99.0" width="63.0" height="16.0" style="fill:orange; stroke:rgb(0,0,0);" rx="1"/>
<text x="635" y="108" style="font-family:sans-serif;font-size:10px;">
argumento
</text>
<rect x="1238.0" y="99.0" width="7.0" height="16.0" style="fill:orange; stroke:rgb(0,0,0);" rx="1"/>
<text x="1240" y="108" style="font-family:sans-serif;font-size:10px;">
:
</text>
<rect x="1671.0" y="231.0" width="48.0" height="16.0" style="fill:orange; stroke:rgb(0,0,0);" rx="1"/>
<text x="1673" y="240" style="font-family:sans-serif;font-size:10px;">
add_sub
</text>
<rect x="2284.25" y="165.0" width="10.0" height="16.0" style="fill:orange; stroke:rgb(0,0,0);" rx="1"/>
<text x="2286" y="174" style="font-family:sans-serif;font-size:10px;">
1
</text>
<rect x="1286.5" y="132.0" width="56.0" height="16.0" style="fill:orange; stroke:rgb(0,0,0);" rx="1"/>
<text x="1288" y="141" style="font-family:sans-serif;font-size:10px;">
statement
</text>
<rect x="87.0" y="99.0" width="61.0" height="16.0" style="fill:orange; stroke:rgb(0,0,0);" rx="1"/>
<text x="89" y="108" style="font-family:sans-serif;font-size:10px;">
expression
</text>
<rect x="155.0" y="99.0" width="42.0" height="16.0" style="fill:orange; stroke:rgb(0,0,0);" rx="1"/>
<text x="157" y="108" style="font-family:sans-serif;font-size:10px;">
fatorial
</text>
<rect x="304.0" y="165.0" width="10.0" height="16.0" style="fill:orange; stroke:rgb(0,0,0);" rx="1"/>
<text x="306" y="174" style="font-family:sans-serif;font-size:10px;">
0
</text>
<rect x="878.0" y="165.0" width="10.0" height="16.0" style="fill:orange; stroke:rgb(0,0,0);" rx="1"/>
<text x="880" y="174" style="font-family:sans-serif;font-size:10px;">
7
</text>
<rect x="1042.5" y="165.0" width="63.0" height="16.0" style="fill:orange; stroke:rgb(0,0,0);" rx="1"/>
<text x="1044" y="174" style="font-family:sans-serif;font-size:10px;">
argumento
</text>
<rect x="1726.0" y="231.0" width="61.0" height="16.0" style="fill:orange; stroke:rgb(0,0,0);" rx="1"/>
<text x="1728" y="240" style="font-family:sans-serif;font-size:10px;">
expression
</text>
<rect x="1566.5" y="165.0" width="10.0" height="16.0" style="fill:orange; stroke:rgb(0,0,0);" rx="1"/>
<text x="1568" y="174" style="font-family:sans-serif;font-size:10px;">
1
</text>
<rect x="1794.0" y="231.0" width="61.0" height="16.0" style="fill:orange; stroke:rgb(0,0,0);" rx="1"/>
<text x="1796" y="240" style="font-family:sans-serif;font-size:10px;">
expression
</text>
<rect x="2326.75" y="132.0" width="8.0" height="16.0" style="fill:orange; stroke:rgb(0,0,0);" rx="1"/>
<text x="2328" y="141" style="font-family:sans-serif;font-size:10px;">
]
</text>
<rect x="278.5" y="132.0" width="61.0" height="16.0" style="fill:orange; stroke:rgb(0,0,0);" rx="1"/>
<text x="280" y="141" style="font-family:sans-serif;font-size:10px;">
expression
</text>
<rect x="1788.25" y="165.0" width="117.0" height="16.0" style="fill:orange; stroke:rgb(0,0,0);" rx="1"/>
<text x="1790" y="174" style="font-family:sans-serif;font-size:10px;">
assignmentStatement
</text>
<rect x="1837.0" y="198.0" width="10.0" height="16.0" style="fill:orange; stroke:rgb(0,0,0);" rx="1"/>
<text x="1839" y="207" style="font-family:sans-serif;font-size:10px;">
=
</text>
<rect x="524.5" y="132.0" width="61.0" height="16.0" style="fill:orange; stroke:rgb(0,0,0);" rx="1"/>
<text x="526" y="141" style="font-family:sans-serif;font-size:10px;">
expression
</text>
<rect x="204.0" y="99.0" width="10.0" height="16.0" style="fill:orange; stroke:rgb(0,0,0);" rx="1"/>
<text x="206" y="108" style="font-family:sans-serif;font-size:10px;">
=
</text>
<rect x="346.5" y="132.0" width="7.0" height="16.0" style="fill:orange; stroke:rgb(0,0,0);" rx="1"/>
<text x="348" y="141" style="font-family:sans-serif;font-size:10px;">
,
</text>
<rect x="442.5" y="132.0" width="61.0" height="16.0" style="fill:orange; stroke:rgb(0,0,0);" rx="1"/>
<text x="444" y="141" style="font-family:sans-serif;font-size:10px;">
expression
</text>
<rect x="770.5" y="132.0" width="61.0" height="16.0" style="fill:orange; stroke:rgb(0,0,0);" rx="1"/>
<text x="772" y="141" style="font-family:sans-serif;font-size:10px;">
expression
</text>
<rect x="908.75" y="66.0" width="117.0" height="16.0" style="fill:orange; stroke:rgb(0,0,0);" rx="1"/>
<text x="910" y="75" style="font-family:sans-serif;font-size:10px;">
assignmentStatement
</text>
<rect x="1229.0" y="165.0" width="10.0" height="16.0" style="fill:orange; stroke:rgb(0,0,0);" rx="1"/>
<text x="1231" y="174" style="font-family:sans-serif;font-size:10px;">
0
</text>
<rect x="468.0" y="165.0" width="10.0" height="16.0" style="fill:orange; stroke:rgb(0,0,0);" rx="1"/>
<text x="470" y="174" style="font-family:sans-serif;font-size:10px;">
2
</text>
<rect x="1347.25" y="231.0" width="10.0" height="16.0" style="fill:orange; stroke:rgb(0,0,0);" rx="1"/>
<text x="1349" y="240" style="font-family:sans-serif;font-size:10px;">
1
</text>
<rect x="1896.75" y="132.0" width="58.0" height="16.0" style="fill:orange; stroke:rgb(0,0,0);" rx="1"/>
<text x="1898" y="141" style="font-family:sans-serif;font-size:10px;">
"Fatorial:·"
</text>
<rect x="1043.5" y="132.0" width="61.0" height="16.0" style="fill:orange; stroke:rgb(0,0,0);" rx="1"/>
<text x="1045" y="141" style="font-family:sans-serif;font-size:10px;">
expression
</text>
<rect x="1146.0" y="165.0" width="16.0" height="16.0" style="fill:orange; stroke:rgb(0,0,0);" rx="1"/>
<text x="1148" y="174" style="font-family:sans-serif;font-size:10px;">
==
</text>
<rect x="2096.25" y="99.0" width="7.0" height="16.0" style="fill:orange; stroke:rgb(0,0,0);" rx="1"/>
<text x="2098" y="108" style="font-family:sans-serif;font-size:10px;">
(
</text>
<rect x="756.5" y="132.0" width="7.0" height="16.0" style="fill:orange; stroke:rgb(0,0,0);" rx="1"/>
<text x="758" y="141" style="font-family:sans-serif;font-size:10px;">
,
</text>
<rect x="386.0" y="165.0" width="10.0" height="16.0" style="fill:orange; stroke:rgb(0,0,0);" rx="1"/>
<text x="388" y="174" style="font-family:sans-serif;font-size:10px;">
1
</text>
<rect x="838.5" y="132.0" width="7.0" height="16.0" style="fill:orange; stroke:rgb(0,0,0);" rx="1"/>
<text x="840" y="141" style="font-family:sans-serif;font-size:10px;">
,
</text>
<rect x="1105.5" y="99.0" width="11.0" height="16.0" style="fill:orange; stroke:rgb(0,0,0);" rx="1"/>
<text x="1107" y="108" style="font-family:sans-serif;font-size:10px;">
if
</text>
<rect x="2110.25" y="99.0" width="61.0" height="16.0" style="fill:orange; stroke:rgb(0,0,0);" rx="1"/>
<text x="2112" y="108" style="font-family:sans-serif;font-size:10px;">
expression
</text>
<rect x="70.0" y="99.0" width="10.0" height="16.0" style="fill:orange; stroke:rgb(0,0,0);" rx="1"/>
<text x="72" y="108" style="font-family:sans-serif;font-size:10px;">
=
</text>
<rect x="1577.5" y="198.0" width="63.0" height="16.0" style="fill:orange; stroke:rgb(0,0,0);" rx="1"/>
<text x="1579" y="207" style="font-family:sans-serif;font-size:10px;">
argumento
</text>
<rect x="1881.25" y="99.0" width="7.0" height="16.0" style="fill:orange; stroke:rgb(0,0,0);" rx="1"/>
<text x="1883" y="108" style="font-family:sans-serif;font-size:10px;">
(
</text>
<rect x="2202.0" y="99.0" width="7.0" height="16.0" style="fill:orange; stroke:rgb(0,0,0);" rx="1"/>
<text x="2204" y="108" style="font-family:sans-serif;font-size:10px;">
,
</text>
<rect x="1255.75" y="198.0" width="42.0" height="16.0" style="fill:orange; stroke:rgb(0,0,0);" rx="1"/>
<text x="1257" y="207" style="font-family:sans-serif;font-size:10px;">
fatorial
</text>
<rect x="263.5" y="132.0" width="8.0" height="16.0" style="fill:orange; stroke:rgb(0,0,0);" rx="1"/>
<text x="265" y="141" style="font-family:sans-serif;font-size:10px;">
[
</text>
<rect x="550.0" y="165.0" width="10.0" height="16.0" style="fill:orange; stroke:rgb(0,0,0);" rx="1"/>
<text x="552" y="174" style="font-family:sans-serif;font-size:10px;">
3
</text>
<rect x="1123.5" y="99.0" width="61.0" height="16.0" style="fill:orange; stroke:rgb(0,0,0);" rx="1"/>
<text x="1125" y="108" style="font-family:sans-serif;font-size:10px;">
expression
</text>
<rect x="1963.25" y="99.0" width="7.0" height="16.0" style="fill:orange; stroke:rgb(0,0,0);" rx="1"/>
<text x="1965" y="108" style="font-family:sans-serif;font-size:10px;">
,
</text>
<rect x="939.25" y="33.0" width="56.0" height="16.0" style="fill:orange; stroke:rgb(0,0,0);" rx="1"/>
<text x="941" y="42" style="font-family:sans-serif;font-size:10px;">
statement
</text>
<rect x="2151.25" y="66.0" width="83.0" height="16.0" style="fill:orange; stroke:rgb(0,0,0);" rx="1"/>
<text x="2153" y="75" style="font-family:sans-serif;font-size:10px;">
printStatement
</text>
<rect x="2227.75" y="33.0" width="37.0" height="16.0" style="fill:orange; stroke:rgb(0,0,0);" rx="1"/>
<text x="2229" y="42" style="font-family:sans-serif;font-size:10px;">
&lt;EOF&gt;
</text>
<rect x="1134.875" y="0.0" width="51.0" height="16.0" style="fill:orange; stroke:rgb(0,0,0);" rx="1"/>
<text x="1136" y="9" style="font-family:sans-serif;font-size:10px;">
program
</text>
<rect x="16.0" y="66.0" width="117.0" height="16.0" style="fill:orange; stroke:rgb(0,0,0);" rx="1"/>
<text x="18" y="75" style="font-family:sans-serif;font-size:10px;">
assignmentStatement
</text>
<rect x="852.5" y="132.0" width="61.0" height="16.0" style="fill:orange; stroke:rgb(0,0,0);" rx="1"/>
<text x="854" y="141" style="font-family:sans-serif;font-size:10px;">
expression
</text>
<rect x="1818.75" y="132.0" width="56.0" height="16.0" style="fill:orange; stroke:rgb(0,0,0);" rx="1"/>
<text x="1820" y="141" style="font-family:sans-serif;font-size:10px;">
statement
</text>
<rect x="2258.75" y="132.0" width="61.0" height="16.0" style="fill:orange; stroke:rgb(0,0,0);" rx="1"/>
<text x="2260" y="141" style="font-family:sans-serif;font-size:10px;">
expression
</text>
<rect x="606.5" y="132.0" width="61.0" height="16.0" style="fill:orange; stroke:rgb(0,0,0);" rx="1"/>
<text x="608" y="141" style="font-family:sans-serif;font-size:10px;">
expression
</text>
<rect x="796.0" y="165.0" width="10.0" height="16.0" style="fill:orange; stroke:rgb(0,0,0);" rx="1"/>
<text x="798" y="174" style="font-family:sans-serif;font-size:10px;">
6
</text>
<rect x="1380.0" y="165.0" width="63.0" height="16.0" style="fill:orange; stroke:rgb(0,0,0);" rx="1"/>
<text x="1382" y="174" style="font-family:sans-serif;font-size:10px;">
argumento
</text>
<rect x="1879.5" y="264.0" width="10.0" height="16.0" style="fill:orange; stroke:rgb(0,0,0);" rx="1"/>
<text x="1881" y="273" style="font-family:sans-serif;font-size:10px;">
*
</text>
<rect x="2182.75" y="132.0" width="54.0" height="16.0" style="fill:orange; stroke:rgb(0,0,0);" rx="1"/>
<text x="2184" y="141" style="font-family:sans-serif;font-size:10px;">
flamengo
</text>
<rect x="894.5" y="99.0" width="7.0" height="16.0" style="fill:orange; stroke:rgb(0,0,0);" rx="1"/>
<text x="896" y="108" style="font-family:sans-serif;font-size:10px;">
)
</text>
<rect x="1184.75" y="33.0" width="56.0" height="16.0" style="fill:orange; stroke:rgb(0,0,0);" rx="1"/>
<text x="1186" y="42" style="font-family:sans-serif;font-size:10px;">
statement
</text>
<rect x="1298.5" y="99.0" width="32.0" height="16.0" style="fill:orange; stroke:rgb(0,0,0);" rx="1"/>
<text x="1300" y="108" style="font-family:sans-serif;font-size:10px;">
block
</text>
<rect x="1541.0" y="132.0" width="61.0" height="16.0" style="fill:orange; stroke:rgb(0,0,0);" rx="1"/>
<text x="1543" y="141" style="font-family:sans-serif;font-size:10px;">
expression
</text>
<rect x="1602.0" y="264.0" width="63.0" height="16.0" style="fill:orange; stroke:rgb(0,0,0);" rx="1"/>
<text x="1604" y="273" style="font-family:sans-serif;font-size:10px;">
argumento
</text>
<rect x="1664.5" y="198.0" width="61.0" height="16.0" style="fill:orange; stroke:rgb(0,0,0);" rx="1"/>
<text x="1666" y="207" style="font-family:sans-serif;font-size:10px;">
expression
</text>
<rect x="1593.5" y="165.0" width="117.0" height="16.0" style="fill:orange; stroke:rgb(0,0,0);" rx="1"/>
<text x="1595" y="174" style="font-family:sans-serif;font-size:10px;">
assignmentStatement
</text>
<rect x="1203.5" y="132.0" width="61.0" height="16.0" style="fill:orange; stroke:rgb(0,0,0);" rx="1"/>
<text x="1205" y="141" style="font-family:sans-serif;font-size:10px;">
expression
</text>
<rect x="973.5" y="132.0" width="63.0" height="16.0" style="fill:orange; stroke:rgb(0,0,0);" rx="1"/>
<text x="975" y="141" style="font-family:sans-serif;font-size:10px;">
argumento
</text>
<rect x="1977.25" y="99.0" width="61.0" height="16.0" style="fill:orange; stroke:rgb(0,0,0);" rx="1"/>
<text x="1979" y="108" style="font-family:sans-serif;font-size:10px;">
expression
</text>
<rect x="1647.5" y="198.0" width="10.0" height="16.0" style="fill:orange; stroke:rgb(0,0,0);" rx="1"/>
<text x="1649" y="207" style="font-family:sans-serif;font-size:10px;">
=
</text>
<rect x="2307.75" y="99.0" width="7.0" height="16.0" style="fill:orange; stroke:rgb(0,0,0);" rx="1"/>
<text x="2309" y="108" style="font-family:sans-serif;font-size:10px;">
)
</text>
<rect x="1912.5" y="66.0" width="83.0" height="16.0" style="fill:orange; stroke:rgb(0,0,0);" rx="1"/>
<text x="1914" y="75" style="font-family:sans-serif;font-size:10px;">
printStatement
</text>
<rect x="2164.75" y="33.0" width="56.0" height="16.0" style="fill:orange; stroke:rgb(0,0,0);" rx="1"/>
<text x="2166" y="42" style="font-family:sans-serif;font-size:10px;">
statement
</text>
<rect x="1751.5" y="264.0" width="10.0" height="16.0" style="fill:orange; stroke:rgb(0,0,0);" rx="1"/>
<text x="1753" y="273" style="font-family:sans-serif;font-size:10px;">
1
</text>
<rect x="759.5" y="99.0" width="7.0" height="16.0" style="fill:orange; stroke:rgb(0,0,0);" rx="1"/>
<text x="761" y="108" style="font-family:sans-serif;font-size:10px;">
(
</text>
<rect x="155.25" y="66.0" width="117.0" height="16.0" style="fill:orange; stroke:rgb(0,0,0);" rx="1"/>
<text x="157" y="75" style="font-family:sans-serif;font-size:10px;">
assignmentStatement
</text>
<rect x="1913.0" y="264.0" width="63.0" height="16.0" style="fill:orange; stroke:rgb(0,0,0);" rx="1"/>
<text x="1915" y="273" style="font-family:sans-serif;font-size:10px;">
argumento
</text>
<rect x="221.0" y="99.0" width="61.0" height="16.0" style="fill:orange; stroke:rgb(0,0,0);" rx="1"/>
<text x="223" y="108" style="font-family:sans-serif;font-size:10px;">
expression
</text>
<rect x="908.5" y="99.0" width="42.0" height="16.0" style="fill:orange; stroke:rgb(0,0,0);" rx="1"/>
<text x="910" y="108" style="font-family:sans-serif;font-size:10px;">
fatorial
</text>
<rect x="496.75" y="66.0" width="117.0" height="16.0" style="fill:orange; stroke:rgb(0,0,0);" rx="1"/>
<text x="498" y="75" style="font-family:sans-serif;font-size:10px;">
assignmentStatement
</text>
<rect x="920.5" y="132.0" width="8.0" height="16.0" style="fill:orange; stroke:rgb(0,0,0);" rx="1"/>
<text x="922" y="141" style="font-family:sans-serif;font-size:10px;">
]
</text>
<rect x="1733.375" y="99.0" width="32.0" height="16.0" style="fill:orange; stroke:rgb(0,0,0);" rx="1"/>
<text x="1735" y="108" style="font-family:sans-serif;font-size:10px;">
block
</text>
<rect x="565.5" y="99.0" width="61.0" height="16.0" style="fill:orange; stroke:rgb(0,0,0);" rx="1"/>
<text x="567" y="108" style="font-family:sans-serif;font-size:10px;">
expression
</text>
<rect x="1914.0" y="231.0" width="61.0" height="16.0" style="fill:orange; stroke:rgb(0,0,0);" rx="1"/>
<text x="1916" y="240" style="font-family:sans-serif;font-size:10px;">
expression
</text>
<rect x="1603.0" y="231.0" width="61.0" height="16.0" style="fill:orange; stroke:rgb(0,0,0);" rx="1"/>
<text x="1605" y="240" style="font-family:sans-serif;font-size:10px;">
expression
</text>
<rect x="1803.5" y="264.0" width="42.0" height="16.0" style="fill:orange; stroke:rgb(0,0,0);" rx="1"/>
<text x="1805" y="273" style="font-family:sans-serif;font-size:10px;">
fatorial
</text>
<rect x="773.5" y="99.0" width="114.0" height="16.0" style="fill:orange; stroke:rgb(0,0,0);" rx="1"/>
<text x="775" y="108" style="font-family:sans-serif;font-size:10px;">
"Digite·um·número:·"
</text>
<rect x="527.25" y="33.0" width="56.0" height="16.0" style="fill:orange; stroke:rgb(0,0,0);" rx="1"/>
<text x="529" y="42" style="font-family:sans-serif;font-size:10px;">
statement
</text>
<rect x="1926.0" y="33.0" width="56.0" height="16.0" style="fill:orange; stroke:rgb(0,0,0);" rx="1"/>
<text x="1928" y="42" style="font-family:sans-serif;font-size:10px;">
statement
</text>
<rect x="2059.25" y="99.0" width="30.0" height="16.0" style="fill:orange; stroke:rgb(0,0,0);" rx="1"/>
<text x="2061" y="108" style="font-family:sans-serif;font-size:10px;">
print
</text>
<rect x="974.5" y="99.0" width="61.0" height="16.0" style="fill:orange; stroke:rgb(0,0,0);" rx="1"/>
<text x="976" y="108" style="font-family:sans-serif;font-size:10px;">
expression
</text>
<rect x="46.5" y="33.0" width="56.0" height="16.0" style="fill:orange; stroke:rgb(0,0,0);" rx="1"/>
<text x="48" y="42" style="font-family:sans-serif;font-size:10px;">
statement
</text>
<rect x="703.5" y="99.0" width="10.0" height="16.0" style="fill:orange; stroke:rgb(0,0,0);" rx="1"/>
<text x="705" y="108" style="font-family:sans-serif;font-size:10px;">
=
</text>
<rect x="1461.0" y="99.0" width="61.0" height="16.0" style="fill:orange; stroke:rgb(0,0,0);" rx="1"/>
<text x="1463" y="108" style="font-family:sans-serif;font-size:10px;">
expression
</text>
<rect x="548.5" y="99.0" width="10.0" height="16.0" style="fill:orange; stroke:rgb(0,0,0);" rx="1"/>
<text x="550" y="108" style="font-family:sans-serif;font-size:10px;">
=
</text>
<rect x="510.5" y="132.0" width="7.0" height="16.0" style="fill:orange; stroke:rgb(0,0,0);" rx="1"/>
<text x="512" y="141" style="font-family:sans-serif;font-size:10px;">
,
</text>
<rect x="720.5" y="99.0" width="32.0" height="16.0" style="fill:orange; stroke:rgb(0,0,0);" rx="1"/>
<text x="722" y="108" style="font-family:sans-serif;font-size:10px;">
input
</text>
<rect x="185.75" y="33.0" width="56.0" height="16.0" style="fill:orange; stroke:rgb(0,0,0);" rx="1"/>
<text x="187" y="42" style="font-family:sans-serif;font-size:10px;">
statement
</text>
<rect x="1422.0" y="99.0" width="32.0" height="16.0" style="fill:orange; stroke:rgb(0,0,0);" rx="1"/>
<text x="1424" y="108" style="font-family:sans-serif;font-size:10px;">
while
</text>
<rect x="1321.75" y="198.0" width="61.0" height="16.0" style="fill:orange; stroke:rgb(0,0,0);" rx="1"/>
<text x="1323" y="207" style="font-family:sans-serif;font-size:10px;">
expression
</text>
<rect x="246.5" y="132.0" width="10.0" height="16.0" style="fill:orange; stroke:rgb(0,0,0);" rx="1"/>
<text x="248" y="141" style="font-family:sans-serif;font-size:10px;">
0
</text>
<rect x="632.0" y="165.0" width="10.0" height="16.0" style="fill:orange; stroke:rgb(0,0,0);" rx="1"/>
<text x="634" y="174" style="font-family:sans-serif;font-size:10px;">
4
</text>
<rect x="674.5" y="132.0" width="7.0" height="16.0" style="fill:orange; stroke:rgb(0,0,0);" rx="1"/>
<text x="676" y="141" style="font-family:sans-serif;font-size:10px;">
,
</text>
<rect x="1381.0" y="132.0" width="61.0" height="16.0" style="fill:orange; stroke:rgb(0,0,0);" rx="1"/>
<text x="1383" y="141" style="font-family:sans-serif;font-size:10px;">
expression
</text>
<rect x="592.5" y="132.0" width="7.0" height="16.0" style="fill:orange; stroke:rgb(0,0,0);" rx="1"/>
<text x="594" y="141" style="font-family:sans-serif;font-size:10px;">
,
</text>
<rect x="2239.75" y="99.0" width="61.0" height="16.0" style="fill:orange; stroke:rgb(0,0,0);" rx="1"/>
<text x="2241" y="108" style="font-family:sans-serif;font-size:10px;">
expression
</text>
<rect x="1271.5" y="132.0" width="8.0" height="16.0" style="fill:orange; stroke:rgb(0,0,0);" rx="1"/>
<text x="1273" y="141" style="font-family:sans-serif;font-size:10px;">
{
</text>
<rect x="1854.0" y="198.0" width="61.0" height="16.0" style="fill:orange; stroke:rgb(0,0,0);" rx="1"/>
<text x="1856" y="207" style="font-family:sans-serif;font-size:10px;">
expression
</text>
<rect x="1788.0" y="198.0" width="42.0" height="16.0" style="fill:orange; stroke:rgb(0,0,0);" rx="1"/>
<text x="1790" y="207" style="font-family:sans-serif;font-size:10px;">
fatorial
</text>
<rect x="1349.5" y="132.0" width="8.0" height="16.0" style="fill:orange; stroke:rgb(0,0,0);" rx="1"/>
<text x="1351" y="141" style="font-family:sans-serif;font-size:10px;">
}
</text>
</svg>